<?xml version="1.0" encoding="UTF-8"?>
<svg width="340px" height="268px" viewBox="0 0 340 268" version="1.1" xmlns="http://www.w3.org/2000/svg" xmlns:xlink="http://www.w3.org/1999/xlink">
    <!-- Generator: Sketch 49.2 (51160) - http://www.bohemiancoding.com/sketch -->
    <title>subscribe box-full background</title>
    <desc>Created with Sketch.</desc>
    <defs>
        <rect id="path-1" x="0" y="0" width="340" height="268"></rect>
        <linearGradient x1="100%" y1="0%" x2="0%" y2="100%" id="linearGradient-3">
            <stop stop-color="#0079B7" offset="0%"></stop>
            <stop stop-color="#004480" offset="100%"></stop>
        </linearGradient>
        <linearGradient x1="100%" y1="0%" x2="0%" y2="100%" id="linearGradient-4">
            <stop stop-color="#0275B1" offset="0%"></stop>
            <stop stop-color="#02457F" offset="100%"></stop>
        </linearGradient>
    </defs>
    <g id="Home" stroke="none" stroke-width="1" fill="none" fill-rule="evenodd">
        <g transform="translate(-990.000000, -148.000000)" id="Sidebar">
            <g transform="translate(990.000000, 148.000000)">
                <g id="Email-Opt-In-Box-gradient-image-background">
                    <g id="subscribe-box-full-background">
                        <mask id="mask-2" fill="white">
                            <use xlink:href="#path-1"></use>
                        </mask>
                        <use id="Rectangle-15" fill="#003766" opacity="0.900000036" xlink:href="#path-1"></use>
                        <rect id="Rectangle-15" fill="url(#linearGradient-3)" opacity="0.900000036" mask="url(#mask-2)" x="0" y="0" width="340" height="268"></rect>
                        <rect id="subscribe-box-background-gradient" fill="url(#linearGradient-4)" opacity="0.900000036" mask="url(#mask-2)" x="0" y="0" width="340" height="268"></rect>
                        <g id="compass-graphic" opacity="0.300000012" style="mix-blend-mode: multiply;" mask="url(#mask-2)">
                            <g transform="translate(193.000000, -32.000000)">
                                <path d="M31.4762323,107.132057 C31.4762323,65.349325 65.3500157,31.4755416 107.132747,31.4755416 C148.922386,31.4755416 182.789262,65.349325 182.789262,107.132057 C182.789262,148.914788 148.922386,182.788571 107.132747,182.788571 C65.3500157,182.788571 31.4762323,148.914788 31.4762323,107.132057 Z" id="Fill-4" fill="#FFFFFF"></path>
                                <polygon id="Fill-6" fill="#FFFFFF" points="55.8606593 52.9630141 54.4377394 54.6691366 90.5909576 90.8154474 92.8220408 78.5548509"></polygon>
                                <path d="M90.6607221,90.7643328 L13.1944741,104.855385 L13.3947881,107.058838 L90.1633909,107.058838 L90.2324647,106.015824 C90.4742229,102.265118 91.917865,98.7907064 94.3907064,95.9655887 L95.0814443,95.1850549 L90.6607221,90.7643328 Z" id="Fill-8" fill="#FFFFFF"></path>
                                <polygon id="Fill-10" fill="#FFFFFF" points="78.559686 121.453124 53.3753846 157.820471 90.9515228 123.704929"></polygon>
                                <polygon id="Fill-12" fill="#FFFFFF" points="159.592904 54.4301413 123.453501 90.5764521 135.714097 92.8144427 161.299027 55.8530612"></polygon>
                                <path d="M200.875542,107.206656 L124.106939,107.206656 L124.037865,108.24967 C123.796107,112.000377 122.359372,115.474788 119.872716,118.292998 L119.195793,119.08044 L123.6027,123.501162 L201.068948,109.417017 L200.875542,107.206656 Z" id="Fill-14" fill="#FFFFFF"></path>
                                <polygon id="Fill-16" fill="#FFFFFF" points="123.707002 123.314662 121.455196 135.706499 157.822543 160.883893"></polygon>
                                <path d="M109.426688,13.1944741 L107.223234,13.3878807 L107.216327,90.1633909 L108.259341,90.2255573 C112.00314,90.4742229 115.484458,91.9109576 118.302669,94.3907064 L119.083203,95.0745369 L123.510832,90.6538148 L109.426688,13.1944741 Z" id="Fill-18" fill="#FFFFFF"></path>
                                <path d="M106.020659,124.03303 C102.269953,123.791272 98.7955416,122.354537 95.9704239,119.874788 L95.1898901,119.190958 L90.769168,123.604772 L104.853312,201.064113 L107.056766,200.863799 L107.056766,124.102104 L106.020659,124.03303 Z" id="Fill-20" fill="#FFFFFF"></path>
                                <path d="M175.633909,134.127473 L166.923705,130.514914 C168.705808,125.976766 169.962951,121.189953 170.667504,116.230455 L180.413815,114.455259 C179.736892,121.335008 178.079121,127.931554 175.633909,134.127473 Z M161.266562,157.00471 L155.747567,149.033595 C159.878179,144.246782 163.318053,138.865934 165.901413,133.008477 L174.597802,136.621036 C171.289168,144.156986 166.771743,151.036735 161.266562,157.00471 Z M150.463422,154.442072 L122.681947,135.198116 L124.401884,125.735008 L150.463422,154.442072 Z M136.482889,174.659969 L132.897959,165.956672 C138.79686,163.366405 144.219152,159.898901 149.033595,155.740659 L157.011617,161.259655 C151.002198,166.799372 144.074097,171.351334 136.482889,174.659969 Z M114.462166,180.413815 L116.230455,170.667504 C121.148509,169.962951 125.88697,168.726531 130.383673,166.972057 L133.989325,175.689168 C127.827943,178.10675 121.286656,179.736892 114.462166,180.413815 Z M108.328414,89.1189953 L108.335322,13.3934066 L122.308948,90.2794349 L119.041758,93.5535322 C116.140659,91.011617 112.42449,89.388383 108.328414,89.1189953 Z M107.140345,113.039246 C103.873155,113.039246 101.234537,110.393721 101.234537,107.133438 C101.234537,103.873155 103.873155,101.22763 107.140345,101.22763 C110.400628,101.22763 113.032339,103.873155 113.032339,107.133438 C113.032339,110.393721 110.400628,113.039246 107.140345,113.039246 Z M105.945369,200.866562 L91.9717425,123.980534 L95.2320251,120.713344 C98.133124,123.255259 101.849294,124.878493 105.945369,125.147881 L105.945369,200.866562 Z M80.1394035,175.627002 L83.7519623,166.923705 C88.2901099,168.698901 93.0769231,169.956044 98.0433281,170.667504 L99.811617,180.413815 C92.9249608,179.729984 86.3284144,178.079121 80.1394035,175.627002 Z M57.2621664,161.259655 L65.233281,155.740659 C70.0200942,159.871272 75.4009419,163.311146 81.2514914,165.901413 L77.6389325,174.590895 C70.1098901,171.289168 63.2301413,166.764835 57.2621664,161.259655 Z M59.8248038,150.463422 L79.0687598,122.675039 L88.5387755,124.394976 L59.8248038,150.463422 Z M39.6069074,136.475981 L48.3032967,132.884144 C50.900471,138.789953 54.3610675,144.212245 58.5262166,149.033595 L53.0072214,157.00471 C47.4675039,150.99529 42.9155416,144.06719 39.6069074,136.475981 Z M33.8599686,114.455259 L43.5993721,116.230455 C44.2970173,121.148509 45.5472527,125.880063 47.2948195,130.376766 L38.577708,133.982418 C36.1601256,127.827943 34.5299843,121.279749 33.8599686,114.455259 Z M77.0379906,122.308948 L60.2254317,146.581476 C53.2006279,138.24427 48.4138148,128.007535 46.6248038,116.776138 L77.0379906,122.308948 Z M91.9648352,137.235793 L97.4907378,167.642072 C86.2593407,165.853061 76.022606,161.059341 67.6854003,154.041444 L91.9648352,137.235793 Z M13.400314,105.945369 L90.2932496,91.9648352 L93.5535322,95.2320251 C91.011617,98.133124 89.388383,101.849294 89.1259027,105.945369 L13.400314,105.945369 Z M38.6398744,80.1324961 L47.3500785,83.7519623 C45.5679749,88.2901099 44.3039246,93.0700157 43.5993721,98.0364207 L33.8599686,99.8047096 C34.5368917,92.9249608 36.1877551,86.3284144 38.6398744,80.1324961 Z M53.0141287,57.255259 L58.533124,65.2263736 C54.3956044,70.0131868 50.95573,75.3940345 48.3654631,81.2514914 L39.6690738,77.6389325 C42.9846154,70.1029827 47.5020408,63.2232339 53.0141287,57.255259 Z M77.0379906,91.9579278 L46.6248038,97.4838305 C48.4138148,86.2524333 53.2075353,76.0156986 60.2323391,67.6784929 L77.0379906,91.9579278 Z M91.5987441,79.0618524 L89.8788069,88.5318681 L55.2244898,53.877551 L91.5987441,79.0618524 Z M77.7908948,39.6 L81.3758242,48.3032967 C75.4769231,50.900471 70.0615385,54.3610675 65.2401884,58.5193093 L57.2621664,53.000314 C63.2715856,47.4605965 70.199686,42.9155416 77.7908948,39.6 Z M97.4907378,46.6248038 L91.9717425,77.0241758 L67.6923077,60.2185243 C76.0295133,53.2006279 86.266248,48.4069074 97.4907378,46.6248038 Z M99.8185243,33.8530612 L98.0502355,43.5993721 C93.1321821,44.2970173 88.3868132,45.5403454 83.8901099,47.2948195 L80.2844584,38.577708 C86.4458399,36.1532182 92.9871272,34.5299843 99.8185243,33.8530612 Z M134.127473,38.632967 L130.514914,47.3431711 C125.983673,45.5679749 121.203768,44.310832 116.237363,43.5993721 L114.469074,33.8530612 C121.348823,34.5368917 127.938462,36.1808477 134.127473,38.632967 Z M157.011617,53.000314 L149.033595,58.5262166 C144.253689,54.3956044 138.872841,50.9488226 133.015385,48.3654631 L136.627943,39.6690738 C144.156986,42.977708 151.036735,47.5020408 157.011617,53.000314 Z M160.382418,55.2175824 L135.198116,91.5849294 L125.735008,89.8649922 L160.382418,55.2175824 Z M174.659969,77.7839874 L165.963579,81.3758242 C163.366405,75.4700157 159.905808,70.0477237 155.740659,65.2263736 L161.259655,57.2621664 C166.806279,63.2646782 171.351334,70.1927786 174.659969,77.7839874 Z M180.413815,99.8047096 L170.667504,98.0364207 C169.969859,93.1183673 168.726531,88.3799058 166.972057,83.8832025 L175.689168,80.2844584 C178.10675,86.4389325 179.736892,92.9802198 180.413815,99.8047096 Z M137.235793,91.9579278 L154.041444,67.6854003 C161.066248,76.022606 165.853061,86.2524333 167.642072,97.4838305 L137.235793,91.9579278 Z M122.315856,77.0172684 L116.789953,46.6317111 C128.014443,48.4138148 138.24427,53.2075353 146.581476,60.2254317 L122.315856,77.0172684 Z M122.308948,137.235793 L146.581476,154.041444 C138.24427,161.059341 128.007535,165.853061 116.776138,167.642072 L122.308948,137.235793 Z M167.642072,116.776138 C165.853061,128.007535 161.066248,138.24427 154.048352,146.574568 L137.235793,122.308948 L167.642072,116.776138 Z M200.873469,108.321507 L123.980534,122.302041 L120.713344,119.027943 C123.262166,116.133752 124.878493,112.410675 125.147881,108.321507 L200.873469,108.321507 Z M214.273783,108.300785 L214.163265,107.140345 L214.273783,105.959184 L184.364835,100.523077 C182.838305,82.5915228 175.198744,66.3799058 163.518367,54.0018838 L167.88383,47.68854 L167.165463,47.0875981 L166.571429,46.3761381 L160.264992,50.7485086 C147.880063,39.0750392 131.682261,31.4285714 113.750706,29.9020408 L108.3146,0 L107.15416,0.103610675 L105.972998,0 L100.536892,29.9020408 C82.5984301,31.4216641 66.3937206,39.0681319 54.0087912,50.7416013 L47.7023548,46.3761381 L47.1152276,47.0806907 L46.3899529,47.68854 L50.755416,53.9949765 C39.0750392,66.3799058 31.4285714,82.5915228 29.9020408,100.523077 L0,105.959184 L0.103610675,107.126531 L0,108.300785 L29.9020408,113.736892 C31.4285714,131.675353 39.0750392,147.880063 50.755416,160.264992 L46.3830455,166.571429 L47.0945055,167.165463 L47.6954474,167.88383 L54.0087912,163.51146 C66.3937206,175.191837 82.5915228,182.838305 100.529984,184.357928 L105.966091,214.266876 L107.126531,214.163265 L108.307692,214.266876 L113.743799,184.357928 C131.675353,182.838305 147.880063,175.191837 160.264992,163.51146 L166.571429,167.88383 L167.158556,167.179278 L167.890738,166.571429 L163.518367,160.264992 C175.198744,147.880063 182.845212,131.675353 184.364835,113.736892 L214.273783,108.300785 Z" id="Fill-22" fill="#0087CA"></path>
                            </g>
                        </g>
                    </g>
                </g>
            </g>
        </g>
    </g>
</svg>